<svg xmlns="http://www.w3.org/2000/svg" viewBox="0 0 100 100">
  <style>
    .frame, .letter { fill: #37352f; }
    @media (prefers-color-scheme: dark) {
      .frame, .letter { fill: #e6e6e5; }
    }
  </style>
  <path class="frame" fill-rule="evenodd" d="M36.84,1.46l53.96,3.99c4.35.38,5.87,3.22,5.87,6.63v59.15c0,2.66-.94,4.93-3.22,7.96l-12.69,16.49c-2.08,2.66-3.98,3.22-7.96,3.04l-62.67-3.79c-5.3-.38-6.82-2.84-6.82-7.01V21.37c0-2.16.85-2.78,3.36-4.62L24.34,4.31c4.17-3.03,5.87-3.41,12.5-2.84h0ZM71.39,20.28c5.12.34,6.28.42,9.18-1.94l7.39-5.88c.75-.76.37-1.71-1.52-1.9l-51.88-3.79c-4.36-.38-6.62,1.14-8.33,2.46l-8.9,6.45c-.38.19-1.33,1.33-.19,1.33l53.57,3.22.66.05h0ZM77.36,87.35V30.85c0-2.47-.76-3.61-3.03-3.8l-61.53-3.6c-2.09-.19-3.03,1.14-3.03,3.6v56.12c0,2.47.38,4.55,3.79,4.74l58.88,3.41c3.41.19,4.92-.95,4.92-3.98h0Z"/>
  <path class="letter" d="M70.15,83.58c0,1.17-.52,1.93-1.56,2.28-.84.27-3.07.41-6.67.41s-5.99-.14-7.6-.41c-.76-.14-1.26-.28-1.5-.43-.24-.15-.54-.54-.91-1.16-2.06-3.64-4.1-7.28-6.12-10.92-3.35-5.87-5.35-9.1-6-9.7-3.04,1.06-4.56,1.82-4.56,2.28,0,2.04.08,5.12.25,9.23.17,4.12.25,7.21.25,9.27,0,.84-.38,1.32-1.14,1.43-1.46.22-4.11.33-7.94.33s-6.08-.11-7.26-.33c-.82-.16-1.22-.58-1.22-1.26,0-2.93.15-7.36.44-13.29.3-5.92.44-10.37.44-13.33,0-3.15-.14-7.89-.42-14.21-.28-6.32-.42-11.05-.42-14.2,0-.6.3-.9.89-.9.87,0,2.19.04,3.95.12,1.76.08,3.08.12,3.95.12s2.24-.04,4.01-.12,3.1-.12,3.97-.12c.48,0,.72.24.72.73,0,2.01-.11,5.05-.32,9.11-.21,4.06-.32,7.1-.32,9.11,0,2.34.66,3.51,1.98,3.51,3.35,0,5.95-.88,7.81-2.65,1.38-1.3,2.77-3.68,4.18-7.13.9-2.64,2.38-6.52,4.43-11.66.31-.68.94-1.02,1.9-1.02.73,0,1.84.04,3.31.12,1.48.08,2.58.12,3.31.12s1.89-.03,3.4-.08c1.51-.05,2.62-.08,3.36-.08.68,0,1.01.31,1.01.94,0,.9-.59,3.08-1.77,6.56-3.49,10.27-7.5,16.69-12.04,19.24-.93.52-1.39.94-1.39,1.26,0-.03,2.6,4.05,7.79,12.23,5.2,8.18,7.79,13.04,7.79,14.59Z"/>
</svg>
